<?xml version="1.0" encoding="UTF-8"?>
<svg id="svg8" width="210mm" height="297mm" version="1.1" viewBox="0 0 210 297" xmlns="http://www.w3.org/2000/svg" xmlns:cc="http://creativecommons.org/ns#" xmlns:dc="http://purl.org/dc/elements/1.1/" xmlns:rdf="http://www.w3.org/1999/02/22-rdf-syntax-ns#">
 <metadata id="metadata5">
  <rdf:RDF>
   <cc:Work rdf:about="">
    <dc:format>image/svg+xml</dc:format>
    <dc:type rdf:resource="http://purl.org/dc/dcmitype/StillImage"/>
    <dc:title/>
   </cc:Work>
  </rdf:RDF>
 </metadata>
 <g id="layer1">
  <path id="path76" d="m-10.871 300.61c0.04013-4.4639 6.3355-7.0553-1.5525-6.7199-4.269-2.7674 8.5861-4.3614 0.2468-7.0165-1.3831-1.6581 2.3959-3.2668-1.5965-4.5882-0.04631-4.9537 9.4971-1.3924 3.2905-7.3947-0.86212-4.5208-7.9432 6.2362-5.8916-1.9317 4.5643-8.9733-3.5953 1.8486-4.5658-1.5449 1.6642-4.402 6.7448-12.353-2.1076-10.481-6.9073-0.88165 5.2928-11.712-3.2874-10.019 0.35029-4.8535 11.101-5.8961 1.9961-8.2879-6.5923-2.5979 1.8786-8.4332 3.5138-8.5201-5.4747-1.0684-8.0683-10.897-0.3631-5.9052 5.0844 2.0654 6.5651-1.4309 1.0757-2.9187-4.395-1.7978 0.3754-3.809-1.6848-7.161 3.2036-1.3418 15.208 4.0766 7.2339-2.4751-3.5556-5.0549 11.052 1.9265 4.3373-4.5504-4.0502-6.3942 2.3143-1.1895 3.7403-1.5038-3.6881-6.2312 1.2151-9.5603 5.1991-3.1272 4.217 3.0626 1.5284-7.9914 6.5285-2.4942 1.6686-0.71594-4.6936-8.1131 0.97577-9.7993-5.812-3.5992 0.55376-2.6796 1.8569-5.3025-1.1626-2.6227 0.92574-7.5094 4.9837-6.2771 3.5958-6.2525 15.591-4.6173 14.811-13.1 2.6544-3.2892 2.5931-16.219 7.7752-8.2735 3.6288 5.8874 5.4829 12.292 7.9061 18.667-0.27074 7.84 10.512 10.937 8.9113 18.998 2.1696 5.0806 11.862 1.9396 12.674 7.0333 3.2665-8.6501 7.684 0.75174 7.4536 5.7718 7.2296 0.69963 6.9883 12.223 15.043 10.375 5.9895 1.4279-1.095 8.2535 6.561 8.9348-1.3577 9.4856 11.584-0.99634 13.792 6.0164-7.4725 5.6143 6.5645 5.9708 9.8092 8.4225 7.3756 2.7862 19.475 1.673 22.67 10.547-6.4099 4.0679-17.097 2.0119-20.883 8.945-4.1461 2.0245-4.7387 14.615-9.3496 9.3229-1.399 3.3811-6.0023 8.228-9.6469 5.0186 0.2798 7.3135-4.6093 3.5912-8.1709 3.674-2.5683 1.4849-0.77516-7.7047-1.8778-1.9349-1.7045 4.7916 5.0095 3.5169 6.1026 7.9491 6.5651 0.39835 4.7802 2.625 1.1579 4.5115 6.5519 10.112-15.671-7.0083-8.4381 4.681 4.6298 2.2273 5.1035 7.2462-1.4448 5.8478-0.83641 3.6507-4.1256-0.51799-5.2155 0.0505-1.1205 4.8815 9.0821 12.243-0.7471 10.481-4.6048 0.0203-8.8905-11.543-7.4704-1.4458-1.3841 2.2901-6.3624 2.1364-1.4556 5.8079 4.321 2.171 4.0456 6.2378-1.0481 3.0598-4.1325-3.7806-6.0326-4.3252-8.174 1.0961-6.1578 4.7355-1.721-10.794-9.8862-9.5196-6.5758-1.6004 0.85609 13.033-5.9131 6.3286-1.9513-3.3563-0.49623-10.184-4.9276-4.694-2.3166-1.5824 0.37018-6.7241-4.7539-2.9596-5.6469 2.7433 0.44312-8.2582-5.7572-2.3206-5.8055 2.9634-8.215-1.6965-2.7241-4.9244 0.67232-3.2888-8.5624 1.8868-7.2958 5.8129-2.5026-4.623-3.0725 4.6099-6.1854-1.419-1.7996-6.8036-7.7373 7.3998-7.0227-2.0228-1.303-0.93777-3.8776-0.35364-3.6527-1.9247-3.02 7.7644-4.2996-7.4572-9.5812-1.2828-2.9899-1.9917-0.2489-7.7058-4.7906-2.4163-0.84759 0.86725-2.2076-0.0634-2.1848-1.0966zm1.7779-0.21369c-0.1744-1.9337-0.78611 1.1746 0 0zm2.8876-2.6666c5.7843-2.8456-0.14627 9.289 5.623 3.1382 3.2294 0.82319 4.4554 4.9902 7.4938 0.50706 2.1038 3.04-0.045625 2.6405 3.355 2.6986 0.61325 7.2372 2.4186-3.1349 6.323 1.7367 7.0443 5.3355 1.1887-7.878-3.7407-7.4643-9.4788-1.1742-11.438-11.025-17.651-16.187-3.3482-3.5985-0.36924 3.793-4.1224 0.92205-3.0519-1.5812 4.344 3.6988 1.0765 4.2767 1.547 2.8355-3.8583 6.4739 2.2543 4.9145 0.81283 2.1561-6.7394 10-0.61164 5.4581zm-5.1905-5.0634c0.0495-0.60064-0.59521 0.12351 0 0zm15.144 13.208c0.049469-0.60067-0.59518 0.12354 0 0zm-14.035-13.731c-0.50535-0.34518-0.21358 0.85913 0 0zm13.683 12.292c-0.33969-0.85728-0.45755 0.37596 0 0zm0.64837 0.2675c0.0495-0.60064-0.59521 0.12351 0 0zm7.5524 3.884c0.06941-1.2039-1.3886 0.71006 0 0zm0.60601-0.88073c0.82945-0.64007-1.3296 0.20322 0 0zm-21.764-21.286c0.21964-1.0014-1.4389-0.47053 0 0zm0.60959 0.45097c-0.33969-0.85727-0.45753 0.37596 0 0zm0.68084 0.65341c0.0495-0.60064-0.59521 0.12351 0 0zm26.073 20.952c0.0495-0.60064-0.59521 0.12351 0 0zm-10.604-12.884c-0.33969-0.85728-0.45755 0.37596 0 0zm0.32865-1.4937c1.0107-0.72278-3.8364-2.3026-1.3697-0.41514zm13.308 10.884c-0.50535-0.34518-0.21358 0.85913 0 0zm-10.473-9.5953c3.4222 1.6018-3.4516-2.9886-0.44629-0.10833zm-23.193-22.96c5.0984 1.3182 5.6004-9.8246 10.338-3.2869 0.69527 2.935 3.4652-5.47 5.8926-5.8311 4.1869-6.8003-1.2807-13.004-0.65568-20.023 1.3994-4.536 2.5347-7.5912-3.5109-6.6116-4.5559-1.4638-14.512 3.5869-15.729 0.22901 5.0942-3.1332 11.587-4.0826 17.074-3.5781 4.541 2.4238 12.481-4.01 4.834-4.5975-4.7065-0.54451-9.9512-2.2355-15.146-2.9269-6.6066 0.28673-5.545-3.2917 0.49985-2.5906-1.5137-2.3115-11.937-6.0652-9.0676-0.0375-2.8108 0.79539 11.078 7.7515 1.861 7.2102-3.5728 0.1293-11.432-2.5838-4.6073 1.5033 6.4712 0.889 4.0668 4.769-1.2452 4.9123-9.0897 3.4638 6.9274 1.8454 1.5398 5.3921 8.7276 2.2655-2.7914 5.7178-0.66678 6.5682 5.9588 0.75164 4.0708 3.5343-0.19177 4.9124-6.9815 6.6309 10.581 4.7072 5.7268 11.477-5.0353 4.9858 9.2402-1.7552 2.6758 5.0929-1.3834 1.2866-2.7075 4.7484 0.37843 2.1859zm0.26832-8.8275c6.892-7.0047-11.541-4.458-4.6733-10.004 3.9386-0.96676 3.683-4.6242 0.25625-5.9445 6.2068-0.93875 4.6215-1.6602 1.2649-5.8086 3.7627 0.98049 9.9169-1.0057 12.449 0.17368-1.1005 4.9031-5.951 6.4953-5.079 11.846-1.4441 1.7448 3.7289 3.8378 0.96073 6.7146 4.0079-0.30159 7.0252 2.9264 2.7657 3.6127-1.8036-1.2394-6.853 1.8703-7.9441-0.58967zm-1.8283-7.0083c5.0771 1.4004 5.801-10.866 1.6016-7.0717 3.5385 2.8991-7.8459 6.1066-1.6016 7.0717zm4.3496 1.8654c4.1985 2.5115-2.1137-4.9796-2.0516-1.1974 0.83875-0.026 1.9131 0.0249 2.0516 1.1974zm1.3476-8.8495c0.049531-0.60061-0.59522 0.12344 0 0zm-1.6067-2.6529c0.39966-0.96852-1.1651 0.26409 0 0zm2.4455-0.37823c8.8047-5.8286-8.7715-2.8095 0 0zm27.567 56.413c0.04953-0.60061-0.59522 0.12344 0 0zm-11.203-10.898c2.637 2.2546 9.8992 0.66737 3.4651-3.7922-2.8139-3.654-13.608-8.4114-7.6852-2e-3 0.69607 1.8074 2.2425 3.4777 4.2201 3.7944zm7.2689 6.1586c3.9229 3.862 7.5032 5.3945 11.381 0.0931 8.6292-1.206 6.9722-11.754 14.125-14.962 4.4535-0.50352 6.2585-5.0447 9.817-6.7043 1.1632 3.147-2.7199 10.063 1.1316 3.359 2.2956-8.1626-3.7477-15.333-7.6937-21.895-3.1042-6.8568-12.148-8.2335-18.639-11.084-5.1068-2.3939-12.762-1.887-15.353 3.0591 1.4003-2.7404 11.019-4.5358 5.0462 0.74283-3.535 6.4725-6.5382 13.143-13.654 16.726-2.1847 3.4994-8.0163 10.737-4.2523 14.147 2.558 3.7336 7.0352-2.828 10.701 1.9696 4.1542 2.0651 12.143 10.214 8.6787 13.176-2.2102-3.7917-8.162-0.0519-1.2883 1.373zm-16.542-19.187c-1.4119-6.9864 10.753-14.868 12.851-7.9263-3.5175 3.449-5.078 7.7048-3.7203 11.442-2.087-2.6891-8.2505-1.344-9.1307-3.5157zm2.0279 0.44228c3.662 0.4033 8.2969 4.5209 6.1502-1.6169 0.42611-4.1956 9.4859-9.6517 0.20282-8.9794-3.8593-1.9368-11.579 12.015-6.3531 10.596zm18.211 16.997c-1.1188-3.744-4.9063-9.2414 1.3284-7.2237 4.0639-0.58681 8.5678-10.526 9.6478-1.6308 0.6205 4.8508-7.1653 11.176-10.976 8.8545zm2.399 0.12069c5.7498 0.16386 11.653-11.166 5.6941-11.919-1.817 4.2056-8.4824 4.3792-10.167 5.5645 2.3155 1.2992 1.2274 7.5616 4.4732 6.3544zm-10.782-14.58c-4.1534-5.5676 5.1565 5.5408 8.111 5.4267 4.4163 0.70886 1.5321-4.059-0.70555-3.6186-1.3192-3.9802-6.8882-2.6656-6.7855-7.2475-2.8329 1.7865-4.0849 3.6564-1.2536-9e-3 2.0271 0.0123 3.7806 4.0238 6.9171 5.2507 1.0707 2.3305 7.8602 3.1723 2.6164 6.5626-3.3592-1.5579-6.3232-3.7108-8.8999-6.365zm18.984 3.1641c0.5953-0.12342-0.04958 0.60057 0 0zm5.4134-10.598c3.4849-2.2852 8.1499-7.8965 11.504-8.3743 8.3612 7.5894-4.9531 12.887-11.242 8.7743zm2.9854 0.88487c7.0873 3.5095 15.423-5.3458 7.3668-9.1662-0.79864 3.4556-14.912 8.197-7.3668 9.1662zm-17.965-14.09c-3.2091-5.1735-1.7582-17.015 6.65-12.201 1.7537 1.8452 12.26 5.3735 3.9226 2.7399-5.3731 0.72555-1.7092 5.8039 0.41991 5.3862 2.5931 1.6138 5.7304 3.0592 6.7464 5.8297 3.0057 0.90586 2.7779 7.1115 6.7266 1.9894 0.30578-4.8694-9.3848-10.503-9.1283-11.553 4.9868 1.8926 14.714 14.191 4.5451 13.395-0.97862-5.0281-6.3639-6.2631-9.2841-9.998-5.1136 3.3138-0.26254-8.8678-4.0554-3.4099-2.5065 0.84755-3.2798 11.283-6.5427 7.821zm1.8763-0.17591c-0.51626-4.5384 10.513-9.9161 3.7122-11.974-8.2735-5.2424-8.2287 12.846-3.7122 11.974zm20.408 15.403c0.59524-0.12345-0.04954 0.60062 0 0zm-24.297-23.337c0.59524-0.12345-0.04954 0.60062 0 0zm28.291 12.094c1.3496 0.86523-0.67422 0.0269 0 0zm-45.074 21.008c-1.1846-2.4629-1.5148 0.0951 0 0zm-0.97838-1.9976c-0.78601-1.5476-0.35981 1.5756 0 0zm-18.534-16.294c0.36668-1.0573-1.4629 0.53702 0 0zm12.018 9.9742c4.5311-1.8828-1.4283-7.2846-1.3298-0.67619l0.027234 0.18827 1.3023 0.48792zm5.8882 5.6641c0.049531-0.60061-0.59522 0.12344 0 0zm25.196 20.656c1.2019-3.8331-5.2778-0.31777 0 0zm5.3972 4.3286c3.6988-1.8549 9.493-7.584 7.0783 0.67615 1.4311 4.5021 8.1659-10.324 6.7886-0.99049-0.13881 2.8151 6.3834-0.71294 3.629 5.0502 0.1588 8.3682 0.66377-2.5425 5.3872-2.5845 0.81466 2.364 5.4892 0.51641 7.1893 5.9295 0.63966 3.1097 2.4303 7.3942 3.7842 2.2153-1.0413-2.9658 2.9878-4.4121 3.6197-3.1047 0.58703-6.1968 7.304-3.5646 3.8059-10.637 5.2545-0.33265 5.9728 9.1386 12.144 7.8653-4.1436-4.0888-1.8252-9.8203-4.309-14.593-2.1395-5.4128-3.5987-9.4226-6.7118-14.045-1.0805-8.0019-6.6667 0.0576-5.6471 4.1318 1.3452 6.3606 2.2297 13.183 0.96856 19.224-0.73515 4.165-1.8764 3.6886-3.234 2.2227-5.11e-4 6.125-4.3622 7.0011-5.6187 0.66918-2.1863-4.3502-6.4714-5.9956-9.4841-1.4775-3.1652-1.6188-4.4676-5.2511-4.174-7.715-3.8813 6.7769-9.2432-2.7654-4.1864-5.9379 1.1777 5.4278 9.7375-4.7659 8.1993 3.8226-0.75987-1.0493 6.0206 0.48918 8.7846 2.2231 3.5485 6.5759 2.8667-7.4323 5.7763-0.19526 1.0767 8.9682 1.8909-4.3765 0.31896-7.2956 0.21263-10.814-9.7918 1.5781-15.653-3.0721-7.9449-1.9561-13.764 5.6651-20.324 8.6748 5.1876-0.78152 4.9844 7.0114 0.09065 8.8989l0.34846 0.2062 1.4295-0.16138zm-17.77-14.694c0.09856-1.2013-1.1903 0.24649 0 0zm3.4827 0.67591c-0.58111-0.91384-0.70492 9e-3 0 0zm-29.001-25.615c0.0495-0.60064-0.59521 0.12351 0 0zm28.135 24.577c-0.05405-1.2282-0.88638-0.28391 0 0zm21.391 17.129c-0.50536-0.34518-0.21356 0.85915 0 0zm-43.601-39.397c-0.64568-3.0552-0.23181 2.5754 0 0zm38.778 33.761c-0.50535-0.34518-0.21358 0.85915 0 0zm-35.644-31.743c0.41684-1.5271-1.4769 0.59875 0 0zm0.24575 0.57193c0.0495-0.60064-0.59521 0.12351 0 0zm53.006 45.478c-0.5811-0.91382-0.70492 9e-3 0 0zm-21.416-19.536c0.76906-1.8165-1.4096 1.2582 0 0zm21.104 18.168c-0.33969-0.85727-0.45753 0.37596 0 0zm-54.733-49.206c-0.2275-1.7793-0.33221 2.3538 0 0zm37.006 33.089c0.04953-0.6006-0.59524 0.12346 0 0zm12.328 10.416c0.11537-1.1365-0.95018-0.14326 0 0zm-67.226-63.75c-0.60489-0.0102-1.0749 1.8428 0 0zm23.204 18.629c-0.54608-0.13473-0.65695 1.406 0 0zm42.652 34.81c2.5037-0.58253 8.5629-5.4344 2.7802-3.3653-3.0726-0.1826-6.2346 0.22008-2.7802 3.3653zm5.8435 2.4134c3.5468 2.7852 9.8376-2.8103 11.827 4.543 2.3686 5.7502 3.5272 2.0636 2.9983-2.2529-4.978-1.1502-9.053-7.6378-15.279-5.1358-1.59e-4 0.5494-0.88171 3.9167 0.45356 2.8457zm-70.079-62.574c0.0495-0.60065-0.59523 0.12352 0 0zm27.033 21.015c-0.50535-0.34518-0.21358 0.85916 0 0zm-29.18-25.391c0.04953-0.6006-0.59524 0.12346 0 0zm95.466 82.429c-1.7478-2.1215-2.2076-0.8911 0 0zm-65.349-57.652c-0.50535-0.34518-0.21358 0.85913 0 0zm31.766 26.603c1.9631-3.0072-3.2597 2.8586 0 0zm3.1076 1.1906c7.384-2.1801 15.688 1.9268 22.568-3.038 1.2342 2.7978 6.1534-7.6981 1.3703-4.4562-4.1478-7.0698-1.9406 8.8784-9.9591 5.3388-7.0116 1.3538-10.113-5.7371-14.892 0.61526-1.1061 1.6175-2.8889 3.7453 0.91212 1.5401zm28.302 27.366c0.04953-0.60061-0.59522 0.12344 0 0zm-62.424-57.613c1.7239-3.4326 5.4054-10.513 0.87054-7.102-4.1887-5.7222-1.248-13.465 2.1741-17.291-1.6551-5.0095-5.0009 5.6927-5.885 8.0399-0.080191 5.2103 3.2467 13.646 2.8404 16.353zm2.4192-7.2376c0.59527-0.12342-0.049578 0.60056 0 0zm0.13043 6.9764c0.34911-1.5421-3.2058 2.8988 0 0zm56.311 49.581c-0.28667-1.6102-0.8384 0.27437 0 0zm-87.622-77.137c-0.26033-1.4688-0.85847 0.51663 0 0zm83.157 72.37c0.80836-2.1389-1.5784 0.79226 0 0zm-20.012-19.345c-0.15052-0.5562-1.226 1.8759 0 0zm24.362 22.046c0.92276-4.1998-2.0521 0.40068 0 0zm-55.46-49.265c1.3315-2.9355-1.9959 2.1292 0 0zm32.362 26.795c0.39966-0.96852-1.1651 0.26409 0 0zm-31.859-28.323c0.44002-1.4918-1.1412 0.89485 0 0zm33.554 27.701c-0.02045-1.0279-2.4355 1.1178 0 0zm-33.244-29.04c0.39966-0.96855-1.1651 0.26409 0 0zm1.5133-3.0542c-0.79837 0.28006-2.0941 2.8996 0 0zm33.453 31.048c0.39966-0.96852-1.1651 0.26409 0 0zm-37.396-33.591c0.64921-4.5542 9.5392-6.2393 14.033-4.8259 6.5754 1.2342 12.756 4.3497 18.573 7.6178 4.5504-4.3272 4.7998-10.848 1.5795-16.157 3.2894-4.8741-3.8439-7.3511-8.2512-9.5487-8.1923-3.4425 4.89 10.371-3.2133 4.4526-1.7257-1.6336-8.1349-7.9331-4.5049-1.694 5.4517 9.2768-5.9861-4.9905-8.9536-1.5439-4.1376 2.4751 12.248 6.4683 4.0756 6.5939-2.2017-3.7512-14.35-0.74897-9.1562 0.41768 2.7164 0.75144 15.903 5.4167 7.3609 5.1193-7.3812-4.6041-16.073 0.96249-11.923 9.6904l-0.01099 0.4002 0.39098-0.52206zm-0.73215-1.4523c0.69876-0.32767-0.24093 0.72202 0 0zm16.625-15.002c0.59527-0.12342-0.04958 0.60056 0 0zm-45.051-9.2544c0.04953-0.6006-0.59524 0.12346 0 0zm31.141 27.16c0.04953-0.60061-0.59522 0.12344 0 0zm37.831 30.679c3.5564-4.2814-4.5293 3.7303 0 0zm3.2398 4.167c4.9554 2.0752 11.057-0.9024 8.6129-6.5061-1.0669-3.0275-3.9172-11.923-0.42926-8.3251 2.6869 1.7235 4.1319 10.782 6.1265 9.9537 6.5172-4.8158-4.4239-8.3563-3.9426-13.002 3.6666 2.9754 12.354 10.356 7.0689 1.3012-3.6745-2.5125-5.8965-7.7805-0.23585-2.3801 8.6881 5.825-3.6444-5.5639-5.3319-7.9551 3.6894-0.23882 9.1716 5.1852 6.0738-2.1137-3.73-3.8915-4.7854-8.9894-10.274-5.5924-4.7155-2.2348-16.579-1.1897-14.325 5.2501 3.8561 5.8641 8.9708 12.6 9.5343 20.369 1.826 3.8068-6.7947 9.163-2.8777 9.0007zm15.804-9.5573c0.59528-0.12344-0.04959 0.60062 0 0zm-0.28075-22.124c1.3496 0.86523-0.67421 0.0269 0 0zm-54.098-3.4227c0.97233-1.2727-2.2808 1.3052 0 0zm1.263-0.66528c-0.54608-0.13472-0.65692 1.406 0 0zm52.464 45.49c-0.17951-2.5972-1.103 1.4486 0 0zm-87.366-76.057c-0.58109-0.91383-0.70492 9e-3 0 0zm18.547 15.677c0.8362-0.56841-1.348 0.16993 0 0zm17.252 13.907c-0.05055-0.66529-0.82932 1.2765 0 0zm-13.937-12.089c0.39966-0.96853-1.1651 0.26408 0 0zm3.7488 0.70687c1.5837-2.0166-2.5498 1.6377 0 0zm49.128 40.881c-0.33969-0.85727-0.45753 0.37596 0 0zm-60.45-54.988c6.9796-1.4287 15.586 6.8057 20.69 1.7709 1.2257-5.064-7.6241-6.2928-11.686-10.091-2.8-0.72998-9.2665-5.0164-2.3387-3.6492 7.1525 1.5535 12.957 6.4358 19.262 9.6984 2.8515-3.54-8.1943-9.0706-11.245-12.79-3.1307-3.017-8.1441-5.9896-4.5382 0.53266-3.1743 4.2113-12.097-9.1139-9.7379-2.5146 1.3725 2.8972 2.0436 7.0088-1.2654 6.6811 3.0713 2.5061 4.1239 6.3813-0.98669 3.1191-2.7937-0.11843-7.6489-2.569-2.3295 1.4748 2.3776 1.6958 0.48034 6.2884 4.1746 5.7676zm91.01 79.556c0.04953-0.60062-0.59524 0.12345 0 0zm-2.3753-3.2795c0.68982 0.84231 12.327 5.4035 6.0913 0.16009-4.9168-4.7137-1.1222-12.358 4.8868-6.542 1.7534-1.5052 1.1502-8.9003-4.0024-7.3086-2e-3 -6.8281-6.3913-12.18-12.506-15.711-3.5232 3.9736 4.613 7.2101 5.8763 12.173 4.0536 4.3153 0.42396 6.3012-1.6948 1.4798-1.2423-2.9893-9.6714-11.367-6.3744-3.7398 3.1355 4.0194 4.6276 8.996 6.4962 13.647 0.60926 1.3784 0.05477 6.1048 1.2267 5.8417zm2.0562 2.2264c-0.33969-0.85727-0.45753 0.37596 0 0zm-72.949-70.27c3.8076-7e-3 7.9265-10.146 2.0882-3.1605-1.4368 0.64574-6.3745 6.9012-2.0882 3.1605zm-9.796-6.8453c0.049532-0.60061-0.59526 0.12346 0 0zm8.337 5.1257c0.04953-0.60062-0.59524 0.12345 0 0zm63.251 54.093c0.04953-0.6006-0.59524 0.12346 0 0zm-81.272-72.135c-0.95581-1.9298-0.26466 1.0436 0 0zm42.749 37.106c0.0495-0.60065-0.59523 0.12352 0 0zm35.62 29.967c2.7204 1.5414 1.0319-5.0039 4.0163-6.9066-0.9745-10.796 11.119 6.6817 9.2216-1.269-0.18212-7.3629 5.3808-14.004 6.9566-20.175-5.1687-6.0719-12.636-9.4017-20.368-8.7073-4.4079 1.9622-6.0534-6.0311-7.6019-0.25092-6.3988-2.8777 4.6075 9.7156-3.8887 5.5084-6.4827-1.4253-11.506-10.073-14.356-12.53 2.9873 4.7369 2.0752 13.109 1.0961 15.882 5.059-5.3358 12.52 1.059 17.897-2.2809 3.9666-3.5932 13.484-3.4094 16.906 2.5154 4.1894 4.9975 2.6633 13.19-2.5133 16.587-4.3849-3.0109 0.02328-12.225-3.8179-12.926-5.533 3.0182 0.98255-7.8009-6.1624-5.1764-5.9426-0.92137 5.4984 6.5475 4.4939 10.196-1.8343 4.0905 2.8757 8.7535 0.0821 11.439 2.4059 2.6454-5.5481 6.5816-1.9629 8.0941zm-31.484-27.79c0.0495-0.60065-0.59523 0.12352 0 0zm5.011 3.3188c0.11537-1.1365-0.95021-0.14326 0 0zm0.55545-2.9338c0.51599-1.9955-1.9322 0.75719 0 0zm-25.706-25.964c3.4115-0.94566 7.9065-1.8488 10.295 0.18577 5.8524-4.7162 13.763 4.2165 17.418 7.5203 3.3313 2.8272 7.5777 0.10561 5.7307-2.5281-5.7811-5.7891-2.0039-18.311-11.038-23.276-3.1586-2.9304-6.1043-3.5387-5.0096 1.7394-4.9008 4.1285-12.485 5.9934-18.747 4.2851 2.5071 3.4099 9.4903 8.7801 1.4585 9.6605-2.2763-2.8445-1.1482 4.8233-0.10774 2.4133zm5.7913-6.2244c5.7158-4.9306 14.858-6.6368 20.084 0.058 5.7391 3.1673 1.2098 19.72-1.1779 7.4463 1.0195-5.0888-9.5219 1.6633-4.5573-5.0756-4.6497-2.5904-8.1727 2.7919-12.891-1.1782-0.3409 0.53915-2.382-0.59284-1.4579-1.2504zm2.5735 1.2945c3.2209 4.303 11.982-4.0006 11.685 2.2993-2.7204 4.5788 7.6442-1.6086 5.2769 5.4432 3.6242 8.9793 4.5213-8.9058-0.83492-9.8826-4.4774-5.4596-15.637-3.1111-17.639 1.646l1.5124 0.49399zm1.3924 1.0706c0.59524-0.12345-0.04954 0.60062 0 0zm68.405 73.071c-1.3366-2.5158-2.5916-0.80891 0 0zm-1.7226-1.6812c0.0495-0.60064-0.59521 0.12351 0 0zm-94.871-84.212c-0.58111-0.91384-0.70492 9e-3 0 0zm95.858 81.855c0.0495-0.60064-0.59521 0.12351 0 0zm-72.129-64.546c2.5088-0.60712-2.9731-1.588 0 0zm46.111 38.578c-0.88495-1.3585-0.52637 0.16944 0 0zm22.766 15.893c-0.94209-0.93873-0.66811 2.0423 0 0zm-3.2788-2.9509c0.09877-1.2011-1.1905 0.24628 0 0zm-80.296-71.731c6.0812-7.6609 18.334 6.8866 20.557-5.1186-0.65712-5.3341-0.52399-13.177-3.2346-16.83-3.0253 4.4248-2.8266 9.6514-6.7752 12.233 5.9879 8.1949-9.9689 3.4654-12.729 8.8852-0.5512 0.71005 1.6356 2.4929 2.1819 0.83023zm69.115 60.721c6.0692-5.5854 4.5507-16.372-3.1365-19.611-3.8783-2.7387-16.313 1.3228-6.1029 1.8487 5.8019-1.3774 0.17023 10.067 6.0961 3.7471 1.6226 4.268-1.2749 11.609 3.1433 14.015zm8.8607 8.0923c0.04953-0.6006-0.59524 0.12346 0 0zm2.3935 1.4618c2.2125-7.0536-2.0924-15.066 2.7527-21.296-4.0583-0.0661-5.7609 10.466-7.4664 14.84 0.12345 2.3007 3.0281 6.2442 4.7137 6.4562zm2.029 1.6639c3.6717-4.106-1.1827-16.662 4.9053-15.854 2.9791 6.6062 8.0255-1.5788 12.077 2.541 4.5062-2.3856 7.9141-7.9663 0.0164-6.5023-5.7698 1.674-17.36-6.9868-16.971 3.5187 1.0403 5.1283-0.50305 13.093-0.02845 16.296zm2.4983 2.4532c4.0939 4.5358 4.6951 0.4455 4.2152-3.3975 3.8151-6.6457 3.0368 2.0571 5.16 1.8288 2.6642-1.5676 2.0798-5.2138 4.6505-3.8591-0.39145-7.6159 5.0009 2.4043 4.7262-3.829 3.9035-7.328 8.643-13.737 17.691-13.674 3.8598-0.78969 10.997-3.4382 3.4296-5.8716-4.8834-2.9651-10.913-2.6157-16.232-4.2081-1.4623-2.1942-7.9195-2.6109-11.422-3.6697-4.4505-3.3947-0.0234-10.287-7.6839-6.7721-5.9616 1.5581-5.3356-2.8749-7.4108-5.748-5.4798 0.14419-4.4891-6.9536-2.9929-6.8904-4.1737-1.1163-8.5286-1.2076-10.575-6.1325-2.0196-3.5994-3.8479 6.2876-3.8382 0.0661 3.1021-6.2077-2.4353-5.1552-3.9648-1.9311 1.165-2.8554 0.26358-16.295-3.3059-9.33-6.1989 4.4113-3.7265-7.8867-11.065-3.1402-7.2551-1.4828-3.5406-11.472-10.029-14.754-4.4781-5.5025-3.8881-12.495-7.3764-18.319-0.95521-3.9404-6.1324-15.151-6.8414-5.6703-2.1147 5.7132-2.8971 12.595-10.23 13.544-6.0695 3.5496-11.182 6.4549-12.446 13.197-3.6562 0.55328 6.2524 4.6583-0.31908 4.0506-6.3379-0.36652-0.92311 10.998 3.298 4.93 3.1761-1.2336 11.399-0.33517 5.5989-5.1214 1.1621-3.6075 6.0228-1.5661 3.6727-5.4961 3.0234-2.8874 6.7229-14.798 8.7879-5.4772 0.4097 5.8197 2.3252 12.215 1.924 18.216-3.5888 10.875-14.819-1.5801-19.75 4.1037 4.4254 5.6804 11.599 6.5748 17.99 4.0955 7.0432 0.51415 1.9286-8.3409 6.5895-8.0612 6.7593 0.24047 8.3728 10.505 15.007 9.2525 7.9518-1.4623 0.39246 2.789-2.0736 3.082 2.1538 3.0647-0.75674 14.809 4.5634 13.471 4.0881-0.31222 6.4006-3.8699 6.4489-2.7914 5.473-2.563-1.9644 8.3316-6.0332 7.1576 1.6514 1.3549 7.7451 10.826 8.8426 2.7991 0.30078-3.4836 8.6334-10.84 4.4984-3.5003-2.7565 5.8363-2.8025 8.7036 4.5443 7.8507 5.6086 0.91913 7.4365-0.14759 5.6329-5.7872 2.6357-4.7178 2.303 8.4147 6.8363 9.2286 7.768 1.9586 6.2924 12.237 14.102 11.444 5.0821 2.6906 14.328-1.1688 17.27 3.5648-1.342 5.9352-9.6696 9.4282-12.476 6.0679-2.6098 2.581-3.3305 2.8915-5.9623 5.7818-1.1957-2.4167-1.2534-9.9277-2.4245-2.3658 0.88234 3.5814-3.1607 9.8355-1.0265 12.063zm-40.018-46.604c0.59524-0.12345-0.04954 0.60062 0 0zm11.787 3.8434c0.59527-0.12342-0.04958 0.60056 0 0zm-13.137 4.278c2.7624 2.8878 9.5199 5.0727 5.8044 1.2416-0.59216-4.1701-15.692-12.531-9.4476-4.9572 1.2579 1.3015 1.6682 3.193 3.6432 3.7157zm-32.851-29.368c0.04953-0.60062-0.59524 0.12345 0 0zm40.913 34.074c-0.28666-1.6102-0.83842 0.27436 0 0zm3.8323 2.0909c0.04953-0.60061-0.59522 0.12344 0 0zm6.9698 1.013c-0.33969-0.85728-0.45755 0.37596 0 0zm-65.065-57.008c-0.24499-1.3809-1.1724-0.38821 0 0zm55.139 47.874c-0.14102-1.3672-1.6817-0.0719 0 0zm-7.2404-9.7121c0.04953-0.60062-0.59524 0.12345 0 0zm-34.347-31.208c-0.1753-1.4626-1.4913 7e-3 0 0zm35.823 31.265c0.67727-1.2565-1.8999-0.0767 0 0zm40.274 33.185c0.74055-1.3596-2.7158-1.1702 0 0zm-45.454-39.691c0.04951-0.60064-0.59525 0.1235 0 0zm38.713 32.99c-0.50535-0.34518-0.21358 0.85913 0 0zm-79.144-72.92c0.95327-0.7873-1.7945 0.39206 0 0zm93.949 79.754c-0.33971-0.85729-0.45754 0.37599 0 0zm-16.327-37.067c0.04953-0.60062-0.59524 0.12345 0 0zm-26.087-23.467c0.0495-0.60064-0.59521 0.12351 0 0zm22.609 19.719c0.04953-0.6006-0.59524 0.12346 0 0zm20.588 12.533c-0.50535-0.34518-0.21358 0.85913 0 0zm27.69 20.992c0.0495-0.60061-0.59526 0.12346 0 0zm5.782-1.7514c0.0495-0.60064-0.59521 0.12351 0 0zm-132.16-67.347c0.59529-0.12343-0.049592 0.60058 0 0z" fill-opacity=".056966" stroke-width=".27617"/>
 </g>
</svg>
