<?xml version="1.0" encoding="UTF-8" standalone="no"?>
<svg
   xmlns:dc="http://purl.org/dc/elements/1.1/"
   xmlns:cc="http://creativecommons.org/ns#"
   xmlns:rdf="http://www.w3.org/1999/02/22-rdf-syntax-ns#"
   xmlns:svg="http://www.w3.org/2000/svg"
   xmlns="http://www.w3.org/2000/svg"
   xmlns:sodipodi="http://sodipodi.sourceforge.net/DTD/sodipodi-0.dtd"
   xmlns:inkscape="http://www.inkscape.org/namespaces/inkscape"
   width="210mm"
   height="297mm"
   viewBox="0 0 210 297"
   version="1.1"
   id="svg8"
   inkscape:version="0.92.5 (2060ec1f9f, 2020-04-08)"
   sodipodi:docname="wildkit.svg">
  <defs
     id="defs2" />
  <sodipodi:namedview
     id="base"
     pagecolor="#ffffff"
     bordercolor="#666666"
     borderopacity="1.0"
     inkscape:pageopacity="0.0"
     inkscape:pageshadow="2"
     inkscape:zoom="1.018742"
     inkscape:cx="262.6778"
     inkscape:cy="221.31576"
     inkscape:document-units="mm"
     inkscape:current-layer="layer1"
     inkscape:document-rotation="0"
     showgrid="false"
     inkscape:window-width="1280"
     inkscape:window-height="1016"
     inkscape:window-x="1280"
     inkscape:window-y="27"
     inkscape:window-maximized="0" />
  <metadata
     id="metadata5">
    <rdf:RDF>
      <cc:Work
         rdf:about="">
        <dc:format>image/svg+xml</dc:format>
        <dc:type
           rdf:resource="http://purl.org/dc/dcmitype/StillImage" />
        <dc:title></dc:title>
      </cc:Work>
    </rdf:RDF>
  </metadata>
  <g
     inkscape:label="Layer 1"
     inkscape:groupmode="layer"
     id="layer1">
    <path
       style="fill:#000000;fill-opacity:0.05696615;stroke-width:0.27617499"
       d="m -10.870642,300.61345 c 0.04013,-4.4639 6.3355262,-7.0553 -1.552526,-6.71987 -4.268962,-2.76736 8.5861193,-4.36135 0.246796,-7.0165 -1.383107,-1.6581 2.395905,-3.2668 -1.59652,-4.58824 -0.04631,-4.95371 9.4971274,-1.39243 3.29048,-7.39474 -0.862121,-4.5208 -7.943156,6.23624 -5.891619,-1.93167 4.564262,-8.97333 -3.595346,1.84859 -4.565761,-1.54492 1.664169,-4.402 6.744819,-12.35298 -2.10755,-10.48127 -6.907271,-0.88165 5.292824,-11.71212 -3.287352,-10.01913 0.350291,-4.85346 11.100614,-5.8961 1.996142,-8.28793 -6.592257,-2.59789 1.878636,-8.43318 3.5138,-8.52013 -5.474716,-1.06842 -8.068251,-10.89708 -0.3631,-5.90516 5.084444,2.06545 6.56511,-1.43086 1.075695,-2.9187 -4.394965,-1.7978 0.375403,-3.80897 -1.684755,-7.16104 3.203594,-1.34177 15.2076994,4.07657 7.23392,-2.47511 -3.555589,-5.05486 11.0518638,1.92649 4.337319,-4.55044 -4.050181,-6.39417 2.3143382,-1.18953 3.7403446,-1.50385 -3.6881326,-6.23123 1.2151147,-9.56033 5.1990722,-3.12723 4.2169776,3.06262 1.52837287,-7.99138 6.5284937,-2.49416 1.6685769,-0.71594 -4.69359593,-8.11311 0.9757738,-9.79928 -5.81202695,-3.59923 0.5537622,-2.67959 1.856935,-5.30247 -1.162551,-2.62273 0.9257436,-7.50936 4.9837317,-6.27711 3.595823,-6.2525 15.59134,-4.61733 14.811373,-13.10006 2.654441,-3.28916 2.593117,-16.21943 7.775169,-8.27347 3.628832,5.88736 5.482899,12.29216 7.90607,18.66741 -0.270737,7.83997 10.511717,10.93712 8.911328,18.99824 2.169626,5.08057 11.86214,1.93955 12.674324,7.03331 3.266503,-8.6501 7.683976,0.75174 7.453632,5.77176 7.229556,0.69963 6.988286,12.22339 15.042754,10.37546 5.989533,1.42786 -1.095004,8.2535 6.561035,8.93484 -1.357744,9.48556 11.583907,-0.99634 13.792047,6.01641 -7.47254,5.61426 6.56449,5.97075 9.80922,8.42247 7.37565,2.78624 19.47461,1.67305 22.6705,10.54749 -6.40987,4.0679 -17.09693,2.01194 -20.88324,8.94499 -4.14606,2.02447 -4.73868,14.61463 -9.34959,9.32291 -1.399,3.38108 -6.00231,8.228 -9.64689,5.0186 0.2798,7.31353 -4.609258,3.59123 -8.170872,3.67402 -2.568341,1.48493 -0.775156,-7.70473 -1.877785,-1.93493 -1.704541,4.7916 5.009477,3.51688 6.102644,7.94914 6.565143,0.39835 4.780183,2.62501 1.157933,4.51148 6.55187,10.11169 -15.671253,-7.00831 -8.438118,4.681 4.629764,2.22731 5.103456,7.24618 -1.444845,5.84782 -0.836412,3.65074 -4.125562,-0.51799 -5.215483,0.0505 -1.120461,4.88148 9.082143,12.2426 -0.747103,10.48056 -4.604761,0.0203 -8.890528,-11.54323 -7.470392,-1.44579 -1.384105,2.29011 -6.362367,2.13644 -1.455611,5.80791 4.321019,2.17105 4.045565,6.23785 -1.048089,3.05983 -4.132522,-3.7806 -6.032611,-4.32523 -8.173979,1.09611 -6.157752,4.73553 -1.720978,-10.79389 -9.886232,-9.51959 -6.575773,-1.60045 0.856087,13.03337 -5.91313,6.32861 -1.951339,-3.35631 -0.496229,-10.18422 -4.927596,-4.69404 -2.316628,-1.58245 0.370182,-6.72412 -4.753922,-2.95963 -5.646897,2.74331 0.443116,-8.25819 -5.75716,-2.32063 -5.805451,2.96341 -8.214959,-1.6965 -2.724148,-4.92441 0.67232,-3.28882 -8.562428,1.88685 -7.295825,5.81287 -2.502618,-4.62301 -3.072457,4.60991 -6.185357,-1.41899 -1.799622,-6.80356 -7.737291,7.39979 -7.0227473,-2.02284 -1.3029897,-0.93777 -3.8775591,-0.35364 -3.6526852,-1.92468 -3.0199874,7.76444 -4.2996269,-7.4572 -9.5812439,-1.28279 -2.989876,-1.99166 -0.2488984,-7.70582 -4.7905538,-2.41633 -0.8475884,0.86725 -2.2075838,-0.0634 -2.1847518,-1.09665 z m 1.7778995,-0.21369 c -0.1744021,-1.93367 -0.7861072,1.17462 0,0 z m 2.88762,-2.66661 c 5.78432159,-2.84564 -0.1462705,9.28901 5.62296813,3.13815 3.22939157,0.82319 4.45538407,4.99017 7.49383317,0.50706 2.1038378,3.04 -0.045625,2.6405 3.3550112,2.69857 0.613252,7.23725 2.418625,-3.13487 6.322978,1.73669 7.044335,5.33548 1.188749,-7.87799 -3.74071,-7.46431 -9.4788396,-1.17422 -11.4375642,-11.02469 -17.6507405,-16.18745 -3.3482387,-3.59852 -0.3692352,3.79295 -4.12245,0.92205 -3.0519055,-1.58121 4.343956,3.6988 1.07647,4.27666 1.5470034,2.8355 -3.8582765,6.47394 2.2542825,4.91452 0.8128288,2.1561 -6.739427,10.00023 -0.6116425,5.45806 z m -5.1904895,-5.06343 c 0.0495,-0.60064 -0.595212,0.12351 0,0 z m 15.1438095,13.2081 c 0.049469,-0.60067 -0.5951789,0.12354 0,0 z M -10.286662,292.14695 c -0.505347,-0.34518 -0.21358,0.85913 0,0 z m 13.6832195,12.2918 c -0.3396939,-0.85728 -0.4575542,0.37596 0,0 z m 0.64837,0.2675 c 0.0495,-0.60064 -0.5952121,0.12351 0,0 z m 7.5524005,3.88397 c 0.06941,-1.2039 -1.388597,0.71006 0,0 z m 0.60601,-0.88073 c 0.829452,-0.64007 -1.329644,0.20322 0,0 z M -9.5609425,286.4239 c 0.2196378,-1.0014 -1.4388745,-0.47053 0,0 z m 0.60959,0.45097 c -0.3396884,-0.85727 -0.4575327,0.37596 0,0 z m 0.68084,0.65341 c 0.0495,-0.60064 -0.5952121,0.12351 0,0 z m 26.0727305,20.9521 c 0.0495,-0.60064 -0.595212,0.12351 0,0 z M 7.1985775,295.59656 c -0.3396939,-0.85728 -0.4575542,0.37596 0,0 z m 0.32865,-1.4937 c 1.0107327,-0.72278 -3.8363978,-2.30256 -1.3696937,-0.41514 z m 13.3081605,10.88427 c -0.505347,-0.34518 -0.21358,0.85913 0,0 z m -10.47275,-9.59528 c 3.42217,1.60177 -3.4515565,-2.98857 -0.4462923,-0.10833 z m -23.19285,-22.95951 c 5.0983956,1.31818 5.6004393,-9.82464 10.3378395,-3.28689 0.6952671,2.93498 3.46516582,-5.46999 5.8926,-5.8311 4.1869444,-6.80029 -1.2807325,-13.00361 -0.655685,-20.02339 1.3994021,-4.53599 2.5347032,-7.59115 -3.51085498,-6.61156 -4.55590032,-1.46377 -14.51207452,3.58693 -15.72910352,0.22901 5.094181,-3.13323 11.5869873,-4.08262 17.07389352,-3.5781 4.54104238,2.42384 12.48058948,-4.00998 4.83395498,-4.59749 -4.70651916,-0.54451 -9.9511511,-2.23554 -15.1458295,-2.92687 -6.606639,0.28673 -5.545045,-3.29171 0.4998545,-2.59065 -1.5137265,-2.31153 -11.9366045,-6.06521 -9.0675795,-0.0375 -2.810774,0.79539 11.0776417,7.75149 1.86097,7.21021 -3.572793,0.1293 -11.43193,-2.5838 -4.60727,1.50331 6.47125,0.889 4.066827,4.76897 -1.24517,4.91234 -9.089702,3.46382 6.927422,1.8454 1.539765,5.39209 8.727561,2.26548 -2.79138,5.71775 -0.666775,6.56821 5.958774,0.75164 4.070828,3.53427 -0.191774,4.91245 -6.981539,6.63087 10.581447,4.70718 5.726824,11.47697 -5.03532,4.98575 9.2402368,-1.75523 2.6758,5.09293 -1.383394,1.28657 -2.707455,4.74841 0.37843,2.18593 z m 0.26832,-8.82751 c 6.892015,-7.00472 -11.54064,-4.45801 -4.67334,-10.00393 3.938606,-0.96676 3.682984,-4.6242 0.25625,-5.94449 6.206808,-0.93875 4.62149,-1.66019 1.264926,-5.80861 3.762671,0.98049 9.9169474,-1.00571 12.4488322,0.17368 -1.1004736,4.90311 -5.9510422,6.49526 -5.0790287,11.84569 -1.4441065,1.74483 3.7288687,3.83776 0.9607261,6.71465 4.0078816,-0.30159 7.02523105,2.92639 2.7657239,3.61268 -1.8036381,-1.23945 -6.8529665,1.87029 -7.9440895,-0.58967 z m -1.82833,-7.0083 c 5.0771236,1.4004 5.800985,-10.86613 1.60161,-7.07167 3.5385233,2.89908 -7.845889,6.1066 -1.60161,7.07167 z m 4.34961,1.86536 c 4.1984807,2.51153 -2.113663,-4.97963 -2.051594,-1.19741 0.838749,-0.026 1.913058,0.0249 2.051594,1.19741 z m 1.3476495,-8.84952 c 0.049531,-0.60061 -0.5952206,0.12344 0,0 z m -1.6066695,-2.65289 c 0.3996587,-0.96852 -1.165061,0.26409 0,0 z m 2.4455195,-0.37823 c 8.80467302,-5.8286 -8.7715435,-2.80952 0,0 z m 27.5666005,56.41333 c 0.04953,-0.60061 -0.595221,0.12344 0,0 z M 8.5094475,292.09706 c 2.6369595,2.25458 9.8991865,0.66737 3.4650545,-3.79216 -2.8138684,-3.65396 -13.6084857,-8.41143 -7.6851945,-0.002 0.696071,1.80738 2.2425326,3.47768 4.22014,3.79441 z m 7.2689305,6.15861 c 3.92289,3.86195 7.503163,5.39452 11.38074,0.0931 8.629219,-1.20602 6.972217,-11.75371 14.124566,-14.96168 4.45352,-0.50352 6.258511,-5.04471 9.816966,-6.70429 1.163239,3.14705 -2.719907,10.06268 1.131638,3.35895 2.29558,-8.16261 -3.747673,-15.33296 -7.69374,-21.89467 -3.104225,-6.8568 -12.14849,-8.23351 -18.63926,-11.08393 -5.106818,-2.39393 -12.761696,-1.88704 -15.35267,3.05909 1.400282,-2.74042 11.018788,-4.53584 5.04619,0.74283 -3.535018,6.47254 -6.5381781,13.143 -13.6538805,16.72565 -2.18470208,3.49935 -8.0162872,10.73698 -4.2522706,14.14676 2.55801449,3.73362 7.0352469,-2.82804 10.7013802,1.96965 4.1541649,2.06514 12.1425239,10.21372 8.6786779,13.17559 -2.210201,-3.7917 -8.1620055,-0.0519 -1.288337,1.37295 z M -0.76410248,279.0688 C -2.1759919,272.0824 9.9891101,264.20116 12.086878,271.14246 c -3.517476,3.44904 -5.0780015,7.70484 -3.7202505,11.44201 -2.08703,-2.68909 -8.25054227,-1.344 -9.13072998,-3.51567 z m 2.02785998,0.44228 c 3.6619768,0.4033 8.296911,4.52088 6.1502445,-1.61692 0.4261145,-4.19562 9.485897,-9.65172 0.2028155,-8.97939 -3.8592762,-1.93685 -11.5786115,12.01467 -6.35306,10.59631 z m 18.2112505,16.99736 c -1.118789,-3.744 -4.906297,-9.24145 1.32838,-7.22369 4.063865,-0.58681 8.567822,-10.52588 9.647777,-1.63081 0.620496,4.85078 -7.165335,11.17551 -10.976157,8.8545 z m 2.39903,0.12069 c 5.749774,0.16386 11.653043,-11.16647 5.694134,-11.91886 -1.816988,4.20559 -8.482416,4.37922 -10.167334,5.56447 2.315478,1.29916 1.227373,7.56161 4.4732,6.35439 z m -10.78224,-14.57999 c -4.1533921,-5.56764 5.156515,5.54085 8.111028,5.42674 4.416277,0.70886 1.532076,-4.05897 -0.705548,-3.61864 -1.319182,-3.9802 -6.888158,-2.66562 -6.785455,-7.24752 -2.8328923,1.78652 -4.0848781,3.65644 -1.253615,-0.009 2.027131,0.0123 3.780575,4.02377 6.917139,5.25068 1.070732,2.33053 7.860228,3.17229 2.616371,6.56262 -3.35922,-1.55786 -6.323191,-3.71082 -8.89992,-6.36501 z m 18.98359,3.16412 c 0.595296,-0.12342 -0.04958,0.60057 0,0 z m 5.4134,-10.59751 c 3.484916,-2.28524 8.149853,-7.89654 11.5044,-8.3743 8.361195,7.58936 -4.953073,12.88651 -11.241883,8.77434 z m 2.98538,0.88487 c 7.087317,3.5095 15.422818,-5.34582 7.366763,-9.16615 -0.798643,3.45563 -14.911551,8.19695 -7.366763,9.16615 z m -17.96455,-14.08985 c -3.209081,-5.17347 -1.75816,-17.01463 6.64997,-12.20102 1.753658,1.84517 12.259927,5.37351 3.922583,2.73986 -5.373142,0.72555 -1.709163,5.80391 0.419912,5.3862 2.593111,1.61378 5.73044,3.05919 6.746369,5.82971 3.005749,0.90586 2.777889,7.1115 6.726594,1.98935 0.305775,-4.86935 -9.384795,-10.50311 -9.128281,-11.55261 4.986757,1.89264 14.714446,14.19096 4.545083,13.39538 -0.978619,-5.0281 -6.363904,-6.26313 -9.28409,-9.99803 -5.113583,3.31375 -0.262545,-8.86777 -4.05544,-3.40988 -2.506455,0.84755 -3.279801,11.28341 -6.5427,7.82104 z m 1.87633,-0.17591 c -0.516257,-4.53842 10.512502,-9.91613 3.71225,-11.97422 -8.273494,-5.24236 -8.22872,12.84601 -3.71225,11.97422 z m 20.40794,15.40348 c 0.595244,-0.12345 -0.04954,0.60062 0,0 z m -24.29689,-23.33679 c 0.595244,-0.12345 -0.04954,0.60062 0,0 z m 28.29138,12.09382 c 1.349566,0.86523 -0.674217,0.0269 0,0 z M 1.7147175,286.40332 c -1.18461311,-2.46292 -1.5148406,0.0951 0,0 z M 0.73633752,284.4057 c -0.78601096,-1.54761 -0.35981417,1.57564 0,0 z M -17.797892,268.11216 c 0.366682,-1.05726 -1.462894,0.53702 0,0 z m 12.0177495,9.97419 c 4.5310667,-1.88275 -1.4283056,-7.28465 -1.3298127,-0.67619 l 0.027234,0.18827 1.3022588,0.48792 z m 5.88819002,5.66409 c 0.0495308,-0.60061 -0.59522064,0.12344 0,0 z M 25.304218,304.40606 c 1.201917,-3.83308 -5.277833,-0.31777 0,0 z m 5.39715,4.32863 c 3.698837,-1.8549 9.492975,-7.58396 7.07827,0.67615 1.431121,4.50207 8.165884,-10.32402 6.78861,-0.99049 -0.138814,2.81511 6.383374,-0.71294 3.62899,5.05015 0.158795,8.36816 0.663771,-2.54254 5.387173,-2.5845 0.814665,2.36395 5.489175,0.51641 7.189347,5.92953 0.639661,3.10968 2.430336,7.39417 3.78422,2.21534 -1.041253,-2.96576 2.987767,-4.41211 3.61968,-3.10468 0.58703,-6.19679 7.304043,-3.56461 3.805908,-10.63674 5.254465,-0.33265 5.972759,9.13862 12.14353,7.8653 -4.143564,-4.08884 -1.8252,-9.82029 -4.308988,-14.59323 -2.139456,-5.41283 -3.598659,-9.42261 -6.711816,-14.0451 -1.080465,-8.00187 -6.666738,0.0576 -5.64714,4.13182 1.345248,6.36061 2.229681,13.1831 0.968561,19.22383 -0.73515,4.16498 -1.87638,3.68857 -3.233972,2.22273 -5.11e-4,6.12501 -4.362225,7.00109 -5.618663,0.66918 -2.186262,-4.35015 -6.471388,-5.99559 -9.48406,-1.47749 -3.165194,-1.61876 -4.467638,-5.25106 -4.173961,-7.71501 -3.881286,6.77693 -9.243237,-2.76541 -4.186419,-5.93789 1.177667,5.42781 9.737477,-4.76589 8.199298,3.82256 -0.759871,-1.0493 6.020594,0.48918 8.784586,2.2231 3.548484,6.57588 2.866704,-7.43227 5.776331,-0.19526 1.07667,8.96817 1.890901,-4.37647 0.318962,-7.29559 0.212628,-10.81416 -9.79176,1.57811 -15.653417,-3.07208 -7.944878,-1.95609 -13.764122,5.66511 -20.324244,8.67478 5.187609,-0.78152 4.984384,7.01137 0.09065,8.89887 l 0.348457,0.2062 1.429473,-0.16138 z m -17.77025,-14.69423 c 0.09856,-1.20132 -1.190252,0.24649 0,0 z m 3.4827,0.67591 c -0.581111,-0.91384 -0.704916,0.009 0,0 z m -29.00139,-25.61473 c 0.0495,-0.60064 -0.595212,0.12351 0,0 z m 28.13533,24.57729 c -0.05405,-1.22825 -0.886378,-0.28391 0,0 z m 21.39114,17.12865 c -0.50536,-0.34518 -0.213561,0.85915 0,0 z M -6.6616925,271.41071 c -0.645685,-3.05519 -0.2318115,2.57538 0,0 z M 32.116608,305.1713 c -0.50535,-0.34518 -0.21358,0.85915 0,0 z M -3.5273025,273.42787 c 0.4168448,-1.52709 -1.4769328,0.59875 0,0 z m 0.24575,0.57193 c 0.0495,-0.60064 -0.5952121,0.12351 0,0 z m 53.0061205,45.47835 c -0.581098,-0.91382 -0.704915,0.009 0,0 z m -21.41638,-19.53564 c 0.769062,-1.81647 -1.4096,1.25818 0,0 z m 21.10367,18.16777 c -0.339688,-0.85727 -0.457533,0.37596 0,0 z M -5.3214725,268.90436 c -0.2275013,-1.77933 -0.3322122,2.35381 0,0 z m 37.0060405,33.08897 c 0.04953,-0.6006 -0.595235,0.12346 0,0 z m 12.32786,10.41561 c 0.115366,-1.13647 -0.950185,-0.14326 0,0 z m -67.22558,-63.74954 c -0.604886,-0.0102 -1.074902,1.84277 0,0 z m 23.20373952,18.62863 c -0.54607848,-0.13473 -0.65694964,1.40596 0,0 z M 42.642688,302.09801 c 2.503696,-0.58253 8.562875,-5.43444 2.780167,-3.36533 -3.072584,-0.1826 -6.234589,0.22008 -2.780167,3.36533 z m 5.84351,2.41339 c 3.546783,2.78518 9.837639,-2.81026 11.826813,4.54303 2.36859,5.7502 3.527203,2.06362 2.998307,-2.25293 -4.977957,-1.15017 -9.052987,-7.63778 -15.27868,-5.13583 -1.59e-4,0.5494 -0.881706,3.91672 0.45356,2.84573 z m -70.0787,-62.57379 c 0.0495,-0.60065 -0.595234,0.12352 0,0 z m 27.0333095,21.01511 c -0.5053534,-0.34518 -0.213575,0.85916 0,0 z M -23.739382,237.56199 c 0.04953,-0.6006 -0.595235,0.12346 0,0 z m 95.46596,82.42898 c -1.747783,-2.12154 -2.207593,-0.8911 0,0 z M 6.3774275,262.33924 c -0.5053471,-0.34518 -0.2135797,0.85913 0,0 z m 31.7661705,26.60319 c 1.963148,-3.00725 -3.25971,2.85862 0,0 z m 3.10757,1.19057 c 7.384017,-2.18008 15.687887,1.92677 22.568296,-3.03801 1.234164,2.79779 6.153377,-7.69807 1.370279,-4.45618 -4.147829,-7.06976 -1.940629,8.87845 -9.959105,5.33885 -7.011623,1.35383 -10.112758,-5.7371 -14.891592,0.61526 -1.106092,1.61751 -2.888865,3.74534 0.912122,1.54008 z m 28.30196,27.36632 c 0.04953,-0.60061 -0.595221,0.12344 0,0 z M 7.1288175,259.88602 c 1.7239463,-3.43257 5.4054465,-10.51312 0.870537,-7.10201 -4.1887122,-5.72225 -1.2480365,-13.46484 2.1740535,-17.29117 -1.6550642,-5.00948 -5.0009113,5.69272 -5.8850101,8.03988 -0.080191,5.2103 3.2466675,13.64631 2.8404196,16.3533 z m 2.41924,-7.23765 c 0.5952745,-0.12342 -0.049578,0.60056 0,0 z m 0.13043,6.97636 c 0.3491135,-1.54212 -3.2057857,2.89879 0,0 z m 56.3111805,49.58149 c -0.286669,-1.61015 -0.8384,0.27437 0,0 z m -87.62172,-77.13696 c -0.260329,-1.46881 -0.858472,0.51663 0,0 z m 83.15739,72.37038 c 0.808361,-2.13892 -1.578417,0.79226 0,0 z m -20.01161,-19.34536 c -0.150522,-0.5562 -1.226033,1.8759 0,0 z m 24.36199,22.04578 c 0.922756,-4.19978 -2.052062,0.40068 0,0 z m -55.45974,-49.26477 c 1.331501,-2.93554 -1.9959086,2.12923 0,0 z m 32.36179,26.79487 c 0.399659,-0.96852 -1.165061,0.26409 0,0 z m -31.85887,-28.32301 c 0.440021,-1.49175 -1.1411731,0.89485 0,0 z m 33.55388,27.70141 c -0.02045,-1.02786 -2.435532,1.11775 0,0 z m -33.24386,-29.04019 c 0.399663,-0.96855 -1.16509,0.26409 0,0 z m 1.51334,-3.05423 c -0.798373,0.28006 -2.094142,2.89956 0,0 z m 33.45277,31.04775 c 0.399659,-0.96852 -1.165061,0.26409 0,0 z M 8.7987075,249.41137 c 0.6492115,-4.55415 9.5391775,-6.23927 14.0330185,-4.82589 6.575385,1.23425 12.755899,4.34971 18.573304,7.61781 4.550413,-4.32719 4.799813,-10.84835 1.579548,-16.15743 3.289352,-4.87413 -3.843936,-7.35114 -8.25115,-9.54874 -8.192293,-3.44254 4.890004,10.37144 -3.213252,4.45261 -1.725662,-1.63361 -8.134949,-7.93306 -4.504938,-1.69396 5.451723,9.27685 -5.986113,-4.99053 -8.953595,-1.54387 -4.137566,2.4751 12.248002,6.46833 4.075645,6.59391 -2.201735,-3.75119 -14.3499078,-0.74897 -9.15615,0.41768 2.716381,0.75144 15.902622,5.41669 7.360867,5.11928 -7.381241,-4.60406 -16.0732115,0.96249 -11.9234875,9.69044 l -0.01099,0.4002 0.39098,-0.52206 z m -0.73215,-1.45228 c 0.6987633,-0.32767 -0.240931,0.72202 0,0 z M 24.691428,232.95736 c 0.595274,-0.12342 -0.04958,0.60056 0,0 z m -45.0508,-9.25436 c 0.04953,-0.6006 -0.595235,0.12346 0,0 z m 31.14078,27.16032 c 0.04953,-0.60061 -0.595221,0.12344 0,0 z m 37.83088,30.6788 c 3.556409,-4.28144 -4.529313,3.73031 0,0 z m 3.23983,4.16695 c 4.955371,2.07516 11.056646,-0.9024 8.612942,-6.50606 -1.06692,-3.02749 -3.917248,-11.9226 -0.429264,-8.32511 2.68686,1.72348 4.131941,10.78173 6.126532,9.95366 6.517163,-4.81577 -4.423933,-8.35633 -3.94255,-13.00224 3.666641,2.97542 12.354413,10.35579 7.06891,1.30125 -3.674453,-2.51252 -5.896515,-7.78047 -0.23585,-2.38007 8.688119,5.82505 -3.644389,-5.56392 -5.331884,-7.95514 3.689434,-0.23882 9.171634,5.18515 6.073844,-2.11374 -3.730037,-3.89149 -4.785424,-8.98938 -10.274205,-5.59244 -4.715539,-2.23484 -16.578821,-1.18969 -14.325045,5.25009 3.856095,5.86412 8.970819,12.60032 9.534317,20.36913 1.826003,3.80683 -6.794737,9.16301 -2.877747,9.00067 z m 15.80403,-9.55729 c 0.595283,-0.12344 -0.04959,0.60062 0,0 z m -0.28075,-22.12363 c 1.349587,0.86523 -0.67421,0.0269 0,0 z m -54.09794,-3.42271 c 0.972329,-1.27269 -2.280758,1.30522 0,0 z m 1.26302,-0.66528 c -0.546084,-0.13472 -0.656919,1.40598 0,0 z m 52.46446,45.49017 c -0.179508,-2.59719 -1.103041,1.44858 0,0 z m -87.3662,-76.05737 c -0.581086,-0.91383 -0.70492,0.009 0,0 z m 18.5467295,15.67692 c 0.83620121,-0.56841 -1.3480085,0.16993 0,0 z m 17.2523105,13.90726 c -0.05055,-0.66529 -0.829317,1.2765 0,0 z M 1.5007675,236.86863 c 0.3996594,-0.96853 -1.16505426,0.26408 0,0 z m 3.74882,0.70687 c 1.5836988,-2.01657 -2.5498411,1.63771 0,0 z m 49.1277005,40.88135 c -0.339688,-0.85727 -0.457533,0.37596 0,0 z M -6.0725825,223.46901 c 6.97956782,-1.42873 15.5862884,6.80566 20.6901435,1.77094 1.225656,-5.06396 -7.6240909,-6.29282 -11.6861002,-10.09073 -2.80001597,-0.72998 -9.2664718,-5.01642 -2.33867328,-3.64919 7.15248968,1.55353 12.95681348,6.43585 19.26249448,9.6984 2.851452,-3.53999 -8.194254,-9.07055 -11.2447382,-12.79019 -3.1306947,-3.01699 -8.14410709,-5.98958 -4.5382001,0.53266 -3.17433076,4.21128 -12.0966695,-9.11394 -9.7378564,-2.51462 1.3725184,2.89716 2.0435545,7.00875 -1.2654411,6.68112 3.0712504,2.5061 4.1239342,6.38134 -0.9866924,3.11914 -2.7937268,-0.11843 -7.6488528,-2.56897 -2.3295498,1.47483 2.3776344,1.6958 0.4803356,6.28843 4.1746135,5.76764 z m 91.0102605,79.55598 c 0.04953,-0.60062 -0.595243,0.12345 0,0 z m -2.37534,-3.27952 c 0.689825,0.84231 12.326726,5.40349 6.091309,0.16009 -4.91682,-4.71369 -1.122208,-12.3575 4.886811,-6.54198 1.753433,-1.50522 1.150242,-8.90028 -4.00242,-7.30861 -0.002,-6.82814 -6.391317,-12.17978 -12.505736,-15.71138 -3.523202,3.97358 4.612973,7.2101 5.876336,12.17328 4.053569,4.31528 0.423962,6.3012 -1.69477,1.47983 -1.242323,-2.98931 -9.671381,-11.36723 -6.37444,-3.73981 3.135467,4.01935 4.627565,8.99605 6.496229,13.64687 0.609256,1.37836 0.05477,6.10478 1.226681,5.84171 z m 2.05616,2.22635 c -0.339688,-0.85727 -0.457533,0.37596 0,0 z m -72.94864,-70.26953 c 3.807627,-0.007 7.926534,-10.14647 2.088201,-3.16051 -1.436796,0.64574 -6.3745167,6.9012 -2.088201,3.16051 z m -9.7959905,-6.84528 c 0.049532,-0.60061 -0.5952573,0.12346 0,0 z m 8.3369505,5.12574 c 0.04953,-0.60062 -0.5952428,0.12345 0,0 z m 63.25064,54.09306 c 0.04953,-0.6006 -0.595235,0.12346 0,0 z M -7.8101625,211.94087 c -0.9558103,-1.92984 -0.2646606,1.04365 0,0 z m 42.7490305,37.10598 c 0.0495,-0.60065 -0.595234,0.12352 0,0 z m 35.61999,29.96656 c 2.720401,1.5414 1.031881,-5.00387 4.016253,-6.90663 -0.974502,-10.79551 11.118634,6.68172 9.221597,-1.26895 -0.182118,-7.36293 5.380811,-14.00388 6.956554,-20.17504 -5.168673,-6.0719 -12.635949,-9.40169 -20.367604,-8.70729 -4.407929,1.96223 -6.053448,-6.03111 -7.60191,-0.25092 -6.398761,-2.87768 4.607458,9.71556 -3.888692,5.50843 -6.482653,-1.42533 -11.506434,-10.07309 -14.355659,-12.52971 2.98731,4.73689 2.075186,13.10855 1.096129,15.88165 5.059005,-5.33584 12.519846,1.05903 17.897392,-2.28086 3.966644,-3.59319 13.483934,-3.40945 16.906476,2.51538 4.189439,4.99751 2.663327,13.19017 -2.513344,16.58743 -4.384858,-3.01093 0.02328,-12.22459 -3.817892,-12.92593 -5.533031,3.0182 0.982554,-7.80091 -6.162412,-5.17643 -5.942577,-0.92137 5.49845,6.54754 4.493917,10.19609 -1.834338,4.09054 2.875665,8.7535 0.0821,11.43865 2.405868,2.64542 -5.548108,6.58162 -1.9629,8.09413 z m -31.48398,-27.7896 c 0.0495,-0.60065 -0.595234,0.12352 0,0 z m 5.01097,3.31879 c 0.115368,-1.13648 -0.950212,-0.14326 0,0 z m 0.55545,-2.93381 c 0.515991,-1.99553 -1.932212,0.75719 0,0 z m -25.70562,-25.96357 c 3.411467,-0.94566 7.90651,-1.84878 10.29503,0.18577 5.85243,-4.71624 13.763363,4.21648 17.41835,7.52034 3.331299,2.82719 7.57771,0.10561 5.7307,-2.52807 -5.781052,-5.78907 -2.003938,-18.31137 -11.038082,-23.27635 -3.158608,-2.93039 -6.104333,-3.53869 -5.0096,1.73943 -4.900756,4.12853 -12.485431,5.99344 -18.7472,4.28508 2.50714,3.40988 9.490257,8.78006 1.458542,9.66046 -2.276331,-2.84454 -1.148193,4.82334 -0.10774,2.41334 z m 5.79126,-6.22438 c 5.715788,-4.93057 14.857949,-6.63677 20.083892,0.058 5.739084,3.16729 1.209796,19.71981 -1.177922,7.44628 1.019459,-5.08885 -9.521918,1.66334 -4.557324,-5.07558 -4.649681,-2.5904 -8.172735,2.79189 -12.890736,-1.1782 -0.3409,0.53915 -2.381991,-0.59284 -1.45791,-1.25045 z m 2.57347,1.29448 c 3.220894,4.30304 11.981828,-4.00055 11.68454,2.29933 -2.72038,4.57876 7.644172,-1.60862 5.276864,5.44322 3.624229,8.97931 4.521296,-8.90576 -0.834924,-9.88258 -4.477436,-5.45964 -15.63725,-3.11106 -17.638885,1.64604 l 1.512425,0.49399 z m 1.39239,1.07056 c 0.595244,-0.12345 -0.04954,0.60062 0,0 z m 68.40465,73.07086 c -1.336625,-2.51578 -2.591623,-0.80891 0,0 z m -1.72258,-1.68119 c 0.0495,-0.60064 -0.595212,0.12351 0,0 z M 0.50397752,208.96358 c -0.58111067,-0.91384 -0.70491651,0.009 0,0 z M 96.362468,290.81856 c 0.0495,-0.60064 -0.595212,0.12351 0,0 z m -72.12862,-64.54642 c 2.508822,-0.60712 -2.973089,-1.588 0,0 z m 46.11067,38.57774 c -0.884951,-1.35852 -0.526369,0.16944 0,0 z m 22.76569,15.89264 c -0.942089,-0.93873 -0.668108,2.04232 0,0 z m -3.27878,-2.95088 c 0.09877,-1.20114 -1.190472,0.24628 0,0 z M 9.5351375,206.06037 c 6.0812485,-7.66087 18.3338085,6.88657 20.5574105,-5.11855 -0.657121,-5.3341 -0.523987,-13.17663 -3.234621,-16.83024 -3.025279,4.4248 -2.826618,9.65144 -6.775222,12.23331 5.98791,8.1949 -9.968859,3.46535 -12.7294475,8.88525 -0.5511982,0.71005 1.6356078,2.49286 2.18188,0.83023 z m 69.1148205,60.72084 c 6.069199,-5.58544 4.550654,-16.37243 -3.136502,-19.61083 -3.878274,-2.73873 -16.312931,1.32284 -6.102927,1.84872 5.801908,-1.37742 0.170228,10.06689 6.096099,3.74712 1.622648,4.26796 -1.274893,11.60896 3.14333,14.01499 z m 8.86074,8.09234 c 0.04953,-0.6006 -0.595235,0.12346 0,0 z m 2.39354,1.46181 c 2.21247,-7.05357 -2.092388,-15.06592 2.752716,-21.29597 -4.058341,-0.0661 -5.760924,10.4665 -7.466417,14.83972 0.123446,2.30074 3.028104,6.24415 4.713701,6.45625 z m 2.02895,1.66387 c 3.671716,-4.10605 -1.182661,-16.66238 4.905281,-15.85353 2.979111,6.60622 8.025511,-1.57877 12.077261,2.54105 4.50618,-2.38564 7.91406,-7.96632 0.0164,-6.50229 -5.76983,1.67398 -17.359888,-6.9868 -16.970507,3.51868 1.040304,5.1283 -0.503051,13.09324 -0.02845,16.29609 z m 2.49827,2.45324 c 4.093911,4.53576 4.695083,0.4455 4.215192,-3.39751 3.81512,-6.64568 3.03675,2.05713 5.15998,1.82875 2.66417,-1.56757 2.0798,-5.21381 4.65051,-3.85914 -0.39145,-7.61593 5.00088,2.40427 4.72622,-3.82902 3.90352,-7.32805 8.64303,-13.73729 17.69094,-13.67359 3.8598,-0.78969 10.99676,-3.43816 3.42955,-5.87158 -4.88342,-2.9651 -10.91257,-2.61566 -16.23186,-4.20806 -1.46232,-2.19417 -7.91949,-2.61088 -11.42209,-3.66967 -4.45053,-3.39473 -0.0234,-10.2867 -7.683862,-6.77212 -5.961614,1.55813 -5.335598,-2.87489 -7.41082,-5.74797 -5.47984,0.14419 -4.489121,-6.95359 -2.992923,-6.89044 -4.17374,-1.11633 -8.528628,-1.20763 -10.574937,-6.1325 -2.019577,-3.59939 -3.8479,6.28756 -3.838179,0.0661 3.102085,-6.20769 -2.435345,-5.15521 -3.964839,-1.93107 1.165011,-2.85544 0.263575,-16.29497 -3.305931,-9.32999 -6.19889,4.41133 -3.726481,-7.88672 -11.065331,-3.14024 -7.255135,-1.48276 -3.540631,-11.47159 -10.029334,-14.75375 -4.478076,-5.50246 -3.888097,-12.49465 -7.376431,-18.31941 -0.955206,-3.94038 -6.132405,-15.15069 -6.841368,-5.67032 -2.114717,5.71318 -2.897106,12.59513 -10.230277,13.5445 -6.069468,3.54955 -11.182348,6.45486 -12.4463193,13.19746 -3.6561925,0.55328 6.2524123,4.65829 -0.3190812,4.05056 -6.3378865,-0.36652 -0.9231059,10.99832 3.2980275,4.92995 3.176135,-1.23364 11.398924,-0.33517 5.598873,-5.12143 1.162127,-3.60746 6.022777,-1.56611 3.67266,-5.49612 3.023365,-2.88737 6.722933,-14.79786 8.78794,-5.47715 0.409704,5.81974 2.325237,12.21518 1.923981,18.21642 -3.588841,10.87458 -14.81906,-1.5801 -19.749729,4.10373 4.425441,5.68036 11.598597,6.57482 17.99049,4.09554 7.043186,0.51415 1.928637,-8.34086 6.589458,-8.06122 6.759254,0.24047 8.372848,10.50497 15.007179,9.25252 7.951822,-1.4623 0.392455,2.78899 -2.073629,3.08201 2.153785,3.06468 -0.756738,14.80871 4.56338,13.47143 4.088136,-0.31222 6.400625,-3.86988 6.44888,-2.79141 5.47302,-2.56304 -1.96444,8.3316 -6.03322,7.15765 1.65145,1.35494 7.745121,10.82591 8.84261,2.7991 0.300785,-3.48362 8.633425,-10.84 4.498413,-3.50027 -2.756453,5.83628 -2.802506,8.70361 4.544337,7.85074 5.608587,0.91913 7.436474,-0.14759 5.632949,-5.78721 2.635749,-4.71783 2.303046,8.41469 6.836301,9.22863 7.767993,1.95858 6.292391,12.23734 14.10176,11.4439 5.082052,2.69056 14.328492,-1.16883 17.269962,3.5648 -1.34199,5.93523 -9.66957,9.42821 -12.47617,6.0679 -2.60975,2.58105 -3.3305,2.89147 -5.962262,5.78185 -1.195661,-2.41668 -1.253352,-9.92767 -2.424513,-2.36579 0.882343,3.58136 -3.16068,9.83548 -1.026487,12.06346 z m -40.01844,-46.60422 c 0.595244,-0.12345 -0.04954,0.60062 0,0 z m 11.78667,3.84337 c 0.595274,-0.12342 -0.04958,0.60056 0,0 z m -13.13706,4.27803 c 2.762359,2.88783 9.519936,5.07271 5.804388,1.24156 -0.592155,-4.17013 -15.691969,-12.53128 -9.447618,-4.95725 1.257943,1.30147 1.668243,3.19301 3.64323,3.71569 z m -32.85057,-29.36846 c 0.04953,-0.60062 -0.595243,0.12345 0,0 z m 40.91283,34.07411 c -0.286662,-1.61015 -0.838421,0.27436 0,0 z m 3.8323,2.09087 c 0.04953,-0.60061 -0.595221,0.12344 0,0 z m 6.96983,1.013 c -0.339694,-0.85728 -0.457554,0.37596 0,0 z M 6.8617775,192.77094 c -0.2449898,-1.38089 -1.1724379,-0.38821 0,0 z m 55.1393705,47.87431 c -0.141022,-1.36718 -1.681702,-0.0719 0,0 z m -7.24041,-9.71208 c 0.04953,-0.60062 -0.595243,0.12345 0,0 z m -34.34716,-31.20843 c -0.175298,-1.46255 -1.491271,0.007 0,0 z m 35.82257,31.26476 c 0.677274,-1.25651 -1.899898,-0.0767 0,0 z m 40.27412,33.18515 c 0.740548,-1.35955 -2.715836,-1.17017 0,0 z m -45.45438,-39.69113 c 0.04951,-0.60064 -0.595248,0.1235 0,0 z m 38.71345,32.99025 c -0.505347,-0.34518 -0.21358,0.85913 0,0 z m -79.14378,-72.92001 c 0.95327,-0.7873 -1.7945077,0.39206 0,0 z m 93.949022,79.7537 c -0.33971,-0.85729 -0.45754,0.37599 0,0 z M 88.247308,227.2407 c 0.04953,-0.60062 -0.595243,0.12345 0,0 z m -26.08668,-23.46743 c 0.0495,-0.60064 -0.595212,0.12351 0,0 z m 22.60906,19.71914 c 0.04953,-0.6006 -0.595235,0.12346 0,0 z m 20.588122,12.53299 c -0.50535,-0.34518 -0.21358,0.85913 0,0 z m 27.69019,20.99202 c 0.0495,-0.60061 -0.59526,0.12346 0,0 z m 5.782,-1.75136 c 0.0495,-0.60064 -0.59521,0.12351 0,0 z M 6.6724075,187.91879 c 0.5952854,-0.12343 -0.049592,0.60058 0,0 z"
       id="path76"
       inkscape:connector-curvature="0" />
  </g>
</svg>
